<svg width="24" height="29" viewBox="0 0 24 29" fill="none" xmlns="http://www.w3.org/2000/svg">
<path d="M8.95 1C8.6 1.275 7.8 2.65 7.125 4.175C6.475 5.65 4.75 9.45 3.3 12.625C1.1 17.425 0.674998 18.575 0.649998 19.675C0.599998 22.125 2.525 23.55 5.95 23.6C7.7 23.625 7.875 23.575 7.95 23.125C8 22.75 7.775 22.5 7.125 22.175C6.1 21.7 5.25 20.425 5.25 19.425C5.25 18.525 7.875 12.325 8.575 11.55C8.85 11.25 9.325 11 9.625 11H10.175L9.7 8.7C8.7 3.95 9.45 5.7 11.975 14.025C15.975 27.275 15.95 27.175 16.775 28.125C17.4 28.825 17.725 29 18.475 29C19.625 29 21.225 28.025 22.7 26.425C24.25 24.7 24.1 23.675 22.375 24.4C21.025 24.95 19.875 24.45 19.1 22.975C18.925 22.6 17.475 18.225 15.875 13.225C14.275 8.225 12.725 3.55 12.4 2.85C11.375 0.6 10.225 -0.025 8.95 1Z" fill="white"/>
</svg>
