<svg width="98" height="51" viewBox="0 0 98 51" fill="none" xmlns="http://www.w3.org/2000/svg">
<g clip-path="url(#clip0_130_23)">
<g filter="url(#filter0_d_130_23)">
<path d="M19.502 1.7C18.816 2.1675 17.248 4.505 15.925 7.0975C14.651 9.605 11.27 16.065 8.428 21.4625C4.116 29.6225 3.28299 31.5775 3.23399 33.4475C3.13599 37.6125 6.90899 40.035 13.622 40.12C17.052 40.1625 17.395 40.0775 17.542 39.3125C17.64 38.675 17.199 38.25 15.925 37.6975C13.916 36.89 12.25 34.7225 12.25 33.0225C12.25 31.4925 17.395 20.9525 18.767 19.635C19.306 19.125 20.237 18.7 20.825 18.7H21.903L20.972 14.79C19.012 6.715 20.482 9.69 25.431 23.8425C33.271 46.3675 33.222 46.1975 34.839 47.8125C36.064 49.0025 36.701 49.3 38.171 49.3C40.425 49.3 43.561 47.6425 46.452 44.9225C49.49 41.99 49.196 40.2475 45.815 41.48C43.169 42.415 40.915 41.565 39.396 39.0575C39.053 38.42 36.211 30.9825 33.075 22.4825C29.939 13.9825 26.901 6.035 26.264 4.845C24.255 1.02 22.001 -0.0425063 19.502 1.7Z" fill="#025EC6"/>
</g>
<g filter="url(#filter1_d_130_23)">
<path d="M46.893 14.7475C46.599 15.215 41.65 28.2625 41.65 28.6025C41.65 28.7725 42.042 28.9 42.532 28.9C43.169 28.9 43.61 28.39 44.051 27.2C44.59 25.6275 44.786 25.5 46.305 25.5C47.971 25.5 48.02 25.5425 48.02 27.2C48.02 28.6025 48.167 28.9 49 28.9C49.931 28.9 49.98 28.6025 49.98 21.675V14.45H48.559C47.726 14.45 46.991 14.5775 46.893 14.7475ZM48.02 20.4C48.02 23.29 47.971 23.375 46.795 23.375C45.374 23.375 45.325 23.29 46.354 20.57C46.795 19.4225 47.187 18.2325 47.334 17.935C47.775 16.7025 48.02 17.6375 48.02 20.4Z" fill="#025EC6"/>
</g>
<g filter="url(#filter2_d_130_23)">
<path d="M52.43 21.7175V28.9425L53.704 28.815C54.88 28.6875 55.125 28.2625 57.379 22.1425C60.025 14.9175 60.172 14.3225 58.947 14.535C58.359 14.62 57.673 15.98 56.546 19.2525C55.664 21.8025 54.831 23.97 54.684 24.14C54.537 24.2675 54.39 22.1425 54.39 19.4225C54.39 14.7475 54.341 14.45 53.41 14.45C52.479 14.45 52.43 14.7475 52.43 21.7175Z" fill="#025EC6"/>
</g>
<g filter="url(#filter3_d_130_23)">
<path d="M61.544 14.96C61.25 15.81 59.29 27.3275 59.29 28.1775C59.29 28.8575 59.682 28.9425 62.377 28.815C65.023 28.6875 65.415 28.56 65.562 27.795C65.709 27.0725 65.513 26.945 64.043 27.115C61.936 27.3275 61.593 26.86 62.034 24.4375C62.328 22.61 62.426 22.525 63.994 22.525C65.464 22.525 65.66 22.3975 65.66 21.4625C65.66 20.57 65.415 20.4 64.141 20.4C62.769 20.4 62.622 20.2725 62.916 19.4225C63.063 18.9125 63.21 18.0625 63.21 17.51C63.21 16.7025 63.455 16.575 65.415 16.575C67.424 16.575 67.62 16.49 67.62 15.5125C67.62 14.4925 67.473 14.45 64.68 14.45C62.72 14.45 61.642 14.62 61.544 14.96Z" fill="#025EC6"/>
</g>
<g filter="url(#filter4_d_130_23)">
<path d="M69.923 14.705C69.776 14.9175 69.188 17.765 68.649 21.0375C68.061 24.31 67.473 27.4125 67.326 27.9225C67.13 28.73 67.326 28.9 68.306 28.9C69.433 28.9 69.58 28.6875 69.874 26.3925C70.021 25.0325 70.364 23.6725 70.56 23.375C71.246 22.3975 72.03 23.375 72.03 25.2025C72.03 27.88 72.471 28.9 73.598 28.9C74.578 28.9 74.578 28.73 74.284 25.5C74.039 23.0775 74.088 22.1 74.48 22.1C75.215 22.1 76.44 19.4225 76.44 17.7225C76.44 15.5975 75.509 14.79 72.667 14.5775C71.295 14.45 70.07 14.535 69.923 14.705ZM73.892 18.1475C74.088 19.89 73.255 21.25 72.03 21.25C70.952 21.25 70.805 20.3575 71.344 17.8925C71.589 16.83 71.883 16.575 72.716 16.66C73.5 16.745 73.794 17.1275 73.892 18.1475Z" fill="#025EC6"/>
</g>
<g filter="url(#filter5_d_130_23)">
<path d="M79.135 14.9175C78.988 15.2575 78.4 18.53 77.763 22.185L76.587 28.9H79.184C83.202 28.9 84.084 27.965 85.015 22.95C86.338 15.64 86.093 14.9175 81.83 14.535C80.066 14.4075 79.331 14.4925 79.135 14.9175ZM83.447 17.17C83.692 17.765 82.663 24.31 82.075 25.9675C81.879 26.435 81.585 26.775 81.34 26.775C81.095 26.775 80.605 26.9025 80.164 27.03C79.135 27.37 79.184 26.69 80.164 20.995C80.899 16.8725 81.046 16.575 82.075 16.575C82.712 16.575 83.3 16.83 83.447 17.17Z" fill="#025EC6"/>
</g>
<g filter="url(#filter6_d_130_23)">
<path d="M88.151 21.1225C86.779 24.82 85.505 28.0925 85.358 28.39C85.211 28.815 85.456 28.9425 86.289 28.815C87.171 28.73 87.514 28.305 87.857 27.0725C88.249 25.6275 88.445 25.5 89.964 25.5C91.581 25.5 91.63 25.5425 91.63 27.2C91.63 28.7725 91.728 28.9 92.953 28.9H94.227L93.933 24.0975C93.737 21.505 93.59 18.2325 93.59 16.8725C93.59 14.4925 93.59 14.45 92.169 14.45C90.748 14.45 90.699 14.535 88.151 21.1225ZM91.63 20.4C91.63 23.2475 91.581 23.375 90.454 23.375H89.278L90.307 20.4C90.846 18.7425 91.385 17.425 91.483 17.425C91.532 17.425 91.63 18.7425 91.63 20.4Z" fill="#025EC6"/>
</g>
</g>
<defs>
<filter id="filter0_d_130_23" x="2.23213" y="-1.11313" width="49.3211" height="52.4131" filterUnits="userSpaceOnUse" color-interpolation-filters="sRGB">
<feFlood flood-opacity="0" result="BackgroundImageFix"/>
<feColorMatrix in="SourceAlpha" type="matrix" values="0 0 0 0 0 0 0 0 0 0 0 0 0 0 0 0 0 0 127 0" result="hardAlpha"/>
<feOffset dx="1"/>
<feGaussianBlur stdDeviation="1"/>
<feComposite in2="hardAlpha" operator="out"/>
<feColorMatrix type="matrix" values="0 0 0 0 0 0 0 0 0 0 0 0 0 0 0 0 0 0 0.1 0"/>
<feBlend mode="normal" in2="BackgroundImageFix" result="effect1_dropShadow_130_23"/>
<feBlend mode="normal" in="SourceGraphic" in2="effect1_dropShadow_130_23" result="shape"/>
</filter>
<filter id="filter1_d_130_23" x="41.65" y="13.45" width="10.33" height="16.45" filterUnits="userSpaceOnUse" color-interpolation-filters="sRGB">
<feFlood flood-opacity="0" result="BackgroundImageFix"/>
<feColorMatrix in="SourceAlpha" type="matrix" values="0 0 0 0 0 0 0 0 0 0 0 0 0 0 0 0 0 0 127 0" result="hardAlpha"/>
<feOffset dx="1"/>
<feGaussianBlur stdDeviation="0.5"/>
<feComposite in2="hardAlpha" operator="out"/>
<feColorMatrix type="matrix" values="0 0 0 0 0 0 0 0 0 0 0 0 0 0 0 0 0 0 0.1 0"/>
<feBlend mode="normal" in2="BackgroundImageFix" result="effect1_dropShadow_130_23"/>
<feBlend mode="normal" in="SourceGraphic" in2="effect1_dropShadow_130_23" result="shape"/>
</filter>
<filter id="filter2_d_130_23" x="52.43" y="13.45" width="9.25746" height="16.4925" filterUnits="userSpaceOnUse" color-interpolation-filters="sRGB">
<feFlood flood-opacity="0" result="BackgroundImageFix"/>
<feColorMatrix in="SourceAlpha" type="matrix" values="0 0 0 0 0 0 0 0 0 0 0 0 0 0 0 0 0 0 127 0" result="hardAlpha"/>
<feOffset dx="1"/>
<feGaussianBlur stdDeviation="0.5"/>
<feComposite in2="hardAlpha" operator="out"/>
<feColorMatrix type="matrix" values="0 0 0 0 0 0 0 0 0 0 0 0 0 0 0 0 0 0 0.1 0"/>
<feBlend mode="normal" in2="BackgroundImageFix" result="effect1_dropShadow_130_23"/>
<feBlend mode="normal" in="SourceGraphic" in2="effect1_dropShadow_130_23" result="shape"/>
</filter>
<filter id="filter3_d_130_23" x="59.29" y="13.45" width="10.33" height="16.4148" filterUnits="userSpaceOnUse" color-interpolation-filters="sRGB">
<feFlood flood-opacity="0" result="BackgroundImageFix"/>
<feColorMatrix in="SourceAlpha" type="matrix" values="0 0 0 0 0 0 0 0 0 0 0 0 0 0 0 0 0 0 127 0" result="hardAlpha"/>
<feOffset dx="1"/>
<feGaussianBlur stdDeviation="0.5"/>
<feComposite in2="hardAlpha" operator="out"/>
<feColorMatrix type="matrix" values="0 0 0 0 0 0 0 0 0 0 0 0 0 0 0 0 0 0 0.1 0"/>
<feBlend mode="normal" in2="BackgroundImageFix" result="effect1_dropShadow_130_23"/>
<feBlend mode="normal" in="SourceGraphic" in2="effect1_dropShadow_130_23" result="shape"/>
</filter>
<filter id="filter4_d_130_23" x="67.2577" y="13.5161" width="11.1823" height="16.3839" filterUnits="userSpaceOnUse" color-interpolation-filters="sRGB">
<feFlood flood-opacity="0" result="BackgroundImageFix"/>
<feColorMatrix in="SourceAlpha" type="matrix" values="0 0 0 0 0 0 0 0 0 0 0 0 0 0 0 0 0 0 127 0" result="hardAlpha"/>
<feOffset dx="1"/>
<feGaussianBlur stdDeviation="0.5"/>
<feComposite in2="hardAlpha" operator="out"/>
<feColorMatrix type="matrix" values="0 0 0 0 0 0 0 0 0 0 0 0 0 0 0 0 0 0 0.1 0"/>
<feBlend mode="normal" in2="BackgroundImageFix" result="effect1_dropShadow_130_23"/>
<feBlend mode="normal" in="SourceGraphic" in2="effect1_dropShadow_130_23" result="shape"/>
</filter>
<filter id="filter5_d_130_23" x="76.587" y="13.4807" width="11.1376" height="16.4193" filterUnits="userSpaceOnUse" color-interpolation-filters="sRGB">
<feFlood flood-opacity="0" result="BackgroundImageFix"/>
<feColorMatrix in="SourceAlpha" type="matrix" values="0 0 0 0 0 0 0 0 0 0 0 0 0 0 0 0 0 0 127 0" result="hardAlpha"/>
<feOffset dx="1"/>
<feGaussianBlur stdDeviation="0.5"/>
<feComposite in2="hardAlpha" operator="out"/>
<feColorMatrix type="matrix" values="0 0 0 0 0 0 0 0 0 0 0 0 0 0 0 0 0 0 0.1 0"/>
<feBlend mode="normal" in2="BackgroundImageFix" result="effect1_dropShadow_130_23"/>
<feBlend mode="normal" in="SourceGraphic" in2="effect1_dropShadow_130_23" result="shape"/>
</filter>
<filter id="filter6_d_130_23" x="85.3179" y="13.45" width="10.9091" height="16.45" filterUnits="userSpaceOnUse" color-interpolation-filters="sRGB">
<feFlood flood-opacity="0" result="BackgroundImageFix"/>
<feColorMatrix in="SourceAlpha" type="matrix" values="0 0 0 0 0 0 0 0 0 0 0 0 0 0 0 0 0 0 127 0" result="hardAlpha"/>
<feOffset dx="1"/>
<feGaussianBlur stdDeviation="0.5"/>
<feComposite in2="hardAlpha" operator="out"/>
<feColorMatrix type="matrix" values="0 0 0 0 0 0 0 0 0 0 0 0 0 0 0 0 0 0 0.1 0"/>
<feBlend mode="normal" in2="BackgroundImageFix" result="effect1_dropShadow_130_23"/>
<feBlend mode="normal" in="SourceGraphic" in2="effect1_dropShadow_130_23" result="shape"/>
</filter>
<clipPath id="clip0_130_23">
<rect width="98" height="51" fill="white"/>
</clipPath>
</defs>
</svg>
