<svg width="46" height="49" viewBox="0 0 46 49" fill="none" xmlns="http://www.w3.org/2000/svg">
<path d="M16.2699 0.813128C15.5839 1.28063 14.0159 3.61813 12.6929 6.21063C11.4189 8.71813 8.03787 15.1781 5.19587 20.5756C0.883873 28.7356 0.0508627 30.6906 0.00186265 32.5606C-0.0961373 36.7256 3.67686 39.1481 10.3899 39.2331C13.8199 39.2756 14.1629 39.1906 14.3099 38.4256C14.4079 37.7881 13.9669 37.3631 12.6929 36.8106C10.6839 36.0031 9.01787 33.8356 9.01787 32.1356C9.01787 30.6056 14.1629 20.0656 15.5349 18.7481C16.0739 18.2381 17.0049 17.8131 17.5929 17.8131H18.6709L17.7399 13.9031C15.7799 5.82813 17.2499 8.80313 22.1989 22.9556C30.0389 45.4806 29.9899 45.3106 31.6069 46.9256C32.8319 48.1156 33.4689 48.4131 34.9389 48.4131C37.1929 48.4131 40.3289 46.7556 43.2199 44.0356C46.2579 41.1031 45.9639 39.3606 42.5829 40.5931C39.9369 41.5281 37.6829 40.6781 36.1639 38.1706C35.8209 37.5331 32.9789 30.0956 29.8429 21.5956C26.7069 13.0956 23.6689 5.14813 23.0319 3.95813C21.0229 0.133127 18.7689 -0.929379 16.2699 0.813128Z" fill="white"/>
</svg>
